<mxfile host="app.diagrams.net" modified="2020-04-21T05:02:04.364Z" agent="5.0 (Macintosh; Intel Mac OS X 10_14_6) AppleWebKit/537.36 (KHTML, like Gecko) Chrome/80.0.3987.163 Safari/537.36" etag="BhnKX0lf61oxqMl0OyRP" version="12.9.13" type="github">
  <diagram id="yDlo2jMc-lQr2yuWbLh0" name="Page-1">
    <mxGraphModel dx="946" dy="554" grid="1" gridSize="10" guides="1" tooltips="1" connect="1" arrows="1" fold="1" page="1" pageScale="1" pageWidth="827" pageHeight="1169" math="0" shadow="0">
      <root>
        <mxCell id="0" />
        <mxCell id="1" parent="0" />
        <mxCell id="aDyq0ExZdcWjo6-XUP3u-2" value="" style="endArrow=none;html=1;entryX=0.059;entryY=0;entryDx=0;entryDy=0;entryPerimeter=0;exitX=0.059;exitY=1.025;exitDx=0;exitDy=0;exitPerimeter=0;" parent="1" edge="1">
          <mxGeometry width="50" height="50" relative="1" as="geometry">
            <mxPoint x="83.66000000000008" y="121" as="sourcePoint" />
            <mxPoint x="83.66000000000008" y="80" as="targetPoint" />
            <Array as="points" />
          </mxGeometry>
        </mxCell>
        <mxCell id="aDyq0ExZdcWjo6-XUP3u-5" value="&lt;u&gt;SSN&lt;/u&gt;" style="rounded=0;whiteSpace=wrap;html=1;" parent="1" vertex="1">
          <mxGeometry x="60" y="80" width="80" height="40" as="geometry" />
        </mxCell>
        <mxCell id="aDyq0ExZdcWjo6-XUP3u-6" value="FNAME" style="rounded=0;whiteSpace=wrap;html=1;" parent="1" vertex="1">
          <mxGeometry x="130" y="80" width="70" height="40" as="geometry" />
        </mxCell>
        <mxCell id="aDyq0ExZdcWjo6-XUP3u-7" value="MNAME" style="rounded=0;whiteSpace=wrap;html=1;" parent="1" vertex="1">
          <mxGeometry x="200" y="80" width="70" height="40" as="geometry" />
        </mxCell>
        <mxCell id="aDyq0ExZdcWjo6-XUP3u-8" value="LNAME" style="rounded=0;whiteSpace=wrap;html=1;" parent="1" vertex="1">
          <mxGeometry x="270" y="80" width="70" height="40" as="geometry" />
        </mxCell>
        <mxCell id="aDyq0ExZdcWjo6-XUP3u-9" value="PHONE_NO." style="rounded=0;whiteSpace=wrap;html=1;" parent="1" vertex="1">
          <mxGeometry x="340" y="80" width="80" height="40" as="geometry" />
        </mxCell>
        <mxCell id="aDyq0ExZdcWjo6-XUP3u-10" value="IS_ACTIVE" style="rounded=0;whiteSpace=wrap;html=1;" parent="1" vertex="1">
          <mxGeometry x="420" y="80" width="90" height="40" as="geometry" />
        </mxCell>
        <mxCell id="aDyq0ExZdcWjo6-XUP3u-11" value="DATE OF JOINING" style="rounded=0;whiteSpace=wrap;html=1;" parent="1" vertex="1">
          <mxGeometry x="510" y="80" width="120" height="40" as="geometry" />
        </mxCell>
        <mxCell id="aDyq0ExZdcWjo6-XUP3u-12" value="CAMPUS ADDRESS" style="rounded=0;whiteSpace=wrap;html=1;" parent="1" vertex="1">
          <mxGeometry x="630" y="80" width="120" height="40" as="geometry" />
        </mxCell>
        <mxCell id="aDyq0ExZdcWjo6-XUP3u-13" value="HOME MAILING ADDRESS" style="rounded=0;whiteSpace=wrap;html=1;" parent="1" vertex="1">
          <mxGeometry x="750" y="80" width="120" height="40" as="geometry" />
        </mxCell>
        <mxCell id="aDyq0ExZdcWjo6-XUP3u-14" value="&lt;b&gt;MEMBERS&lt;/b&gt;" style="text;html=1;strokeColor=none;fillColor=none;align=center;verticalAlign=middle;whiteSpace=wrap;rounded=0;" parent="1" vertex="1">
          <mxGeometry x="70" y="50" width="40" height="20" as="geometry" />
        </mxCell>
        <mxCell id="aDyq0ExZdcWjo6-XUP3u-17" value="&lt;u&gt;ISBN&lt;/u&gt;" style="rounded=0;whiteSpace=wrap;html=1;" parent="1" vertex="1">
          <mxGeometry x="60" y="320" width="70" height="40" as="geometry" />
        </mxCell>
        <mxCell id="aDyq0ExZdcWjo6-XUP3u-18" value="&lt;u&gt;BOOK_ID&lt;/u&gt;" style="rounded=0;whiteSpace=wrap;html=1;" parent="1" vertex="1">
          <mxGeometry x="130" y="320" width="100" height="40" as="geometry" />
        </mxCell>
        <mxCell id="aDyq0ExZdcWjo6-XUP3u-19" value="NUMBER OF COPIES" style="rounded=0;whiteSpace=wrap;html=1;" parent="1" vertex="1">
          <mxGeometry x="230" y="320" width="130" height="40" as="geometry" />
        </mxCell>
        <mxCell id="aDyq0ExZdcWjo6-XUP3u-20" value="EDITION" style="rounded=0;whiteSpace=wrap;html=1;" parent="1" vertex="1">
          <mxGeometry x="360" y="320" width="90" height="40" as="geometry" />
        </mxCell>
        <mxCell id="aDyq0ExZdcWjo6-XUP3u-21" value="SUBJECT AREA" style="rounded=0;whiteSpace=wrap;html=1;" parent="1" vertex="1">
          <mxGeometry x="450" y="320" width="100" height="40" as="geometry" />
        </mxCell>
        <mxCell id="aDyq0ExZdcWjo6-XUP3u-22" value="TITLE" style="rounded=0;whiteSpace=wrap;html=1;" parent="1" vertex="1">
          <mxGeometry x="550" y="320" width="70" height="40" as="geometry" />
        </mxCell>
        <mxCell id="aDyq0ExZdcWjo6-XUP3u-23" value="LENDABLE" style="rounded=0;whiteSpace=wrap;html=1;" parent="1" vertex="1">
          <mxGeometry x="620" y="320" width="90" height="40" as="geometry" />
        </mxCell>
        <mxCell id="aDyq0ExZdcWjo6-XUP3u-24" value="AUTHOR" style="rounded=0;whiteSpace=wrap;html=1;" parent="1" vertex="1">
          <mxGeometry x="710" y="320" width="90" height="40" as="geometry" />
        </mxCell>
        <mxCell id="aDyq0ExZdcWjo6-XUP3u-25" value="&lt;b&gt;BOOKS&lt;/b&gt;" style="text;html=1;strokeColor=none;fillColor=none;align=center;verticalAlign=middle;whiteSpace=wrap;rounded=0;" parent="1" vertex="1">
          <mxGeometry x="60" y="290" width="40" height="20" as="geometry" />
        </mxCell>
        <mxCell id="aDyq0ExZdcWjo6-XUP3u-27" value="&lt;u&gt;Isbn&lt;/u&gt;" style="rounded=0;whiteSpace=wrap;html=1;" parent="1" vertex="1">
          <mxGeometry x="55" y="560" width="60" height="40" as="geometry" />
        </mxCell>
        <mxCell id="aDyq0ExZdcWjo6-XUP3u-28" value="&lt;b&gt;CATALOG&lt;/b&gt;" style="text;html=1;strokeColor=none;fillColor=none;align=center;verticalAlign=middle;whiteSpace=wrap;rounded=0;" parent="1" vertex="1">
          <mxGeometry x="65" y="530" width="40" height="20" as="geometry" />
        </mxCell>
        <mxCell id="aDyq0ExZdcWjo6-XUP3u-30" value="TITLE" style="rounded=0;whiteSpace=wrap;html=1;" parent="1" vertex="1">
          <mxGeometry x="195" y="560" width="85" height="40" as="geometry" />
        </mxCell>
        <mxCell id="aDyq0ExZdcWjo6-XUP3u-31" value="DESCRIPTION" style="rounded=0;whiteSpace=wrap;html=1;" parent="1" vertex="1">
          <mxGeometry x="280" y="560" width="120" height="40" as="geometry" />
        </mxCell>
        <mxCell id="aDyq0ExZdcWjo6-XUP3u-32" value="SUBJECT AREA" style="rounded=0;whiteSpace=wrap;html=1;" parent="1" vertex="1">
          <mxGeometry x="400" y="560" width="110" height="40" as="geometry" />
        </mxCell>
        <mxCell id="aDyq0ExZdcWjo6-XUP3u-34" value="&lt;u&gt;ISBN&lt;/u&gt;" style="rounded=0;whiteSpace=wrap;html=1;" parent="1" vertex="1">
          <mxGeometry x="60" y="210" width="60" height="40" as="geometry" />
        </mxCell>
        <mxCell id="aDyq0ExZdcWjo6-XUP3u-35" value="&lt;b&gt;BORROWS&lt;/b&gt;" style="text;html=1;strokeColor=none;fillColor=none;align=center;verticalAlign=middle;whiteSpace=wrap;rounded=0;" parent="1" vertex="1">
          <mxGeometry x="70" y="180" width="40" height="20" as="geometry" />
        </mxCell>
        <mxCell id="aDyq0ExZdcWjo6-XUP3u-36" value="&lt;u&gt;SSN&lt;/u&gt;" style="rounded=0;whiteSpace=wrap;html=1;" parent="1" vertex="1">
          <mxGeometry x="200" y="210" width="85" height="40" as="geometry" />
        </mxCell>
        <mxCell id="aDyq0ExZdcWjo6-XUP3u-37" value="ISSUE DATE" style="rounded=0;whiteSpace=wrap;html=1;" parent="1" vertex="1">
          <mxGeometry x="285" y="210" width="120" height="40" as="geometry" />
        </mxCell>
        <mxCell id="aDyq0ExZdcWjo6-XUP3u-38" value="GRACE PERIOD&amp;nbsp;" style="rounded=0;whiteSpace=wrap;html=1;" parent="1" vertex="1">
          <mxGeometry x="405" y="210" width="120" height="40" as="geometry" />
        </mxCell>
        <mxCell id="aDyq0ExZdcWjo6-XUP3u-40" value="&lt;u&gt;ISBN&lt;/u&gt;" style="rounded=0;whiteSpace=wrap;html=1;" parent="1" vertex="1">
          <mxGeometry x="60" y="445" width="60" height="45" as="geometry" />
        </mxCell>
        <mxCell id="aDyq0ExZdcWjo6-XUP3u-41" value="&lt;b&gt;RETURNS&lt;/b&gt;" style="text;html=1;strokeColor=none;fillColor=none;align=center;verticalAlign=middle;whiteSpace=wrap;rounded=0;" parent="1" vertex="1">
          <mxGeometry x="70" y="420" width="40" height="20" as="geometry" />
        </mxCell>
        <mxCell id="aDyq0ExZdcWjo6-XUP3u-42" value="&lt;u&gt;SSN&lt;/u&gt;" style="rounded=0;whiteSpace=wrap;html=1;" parent="1" vertex="1">
          <mxGeometry x="200" y="445" width="70" height="45" as="geometry" />
        </mxCell>
        <mxCell id="aDyq0ExZdcWjo6-XUP3u-43" value="RETURN DATE" style="rounded=0;whiteSpace=wrap;html=1;" parent="1" vertex="1">
          <mxGeometry x="270" y="445" width="110" height="45" as="geometry" />
        </mxCell>
        <mxCell id="aDyq0ExZdcWjo6-XUP3u-44" value="FINE" style="rounded=0;whiteSpace=wrap;html=1;" parent="1" vertex="1">
          <mxGeometry x="380" y="445" width="100" height="45" as="geometry" />
        </mxCell>
        <mxCell id="aDyq0ExZdcWjo6-XUP3u-45" value="&lt;u&gt;SSN&lt;/u&gt;" style="rounded=0;whiteSpace=wrap;html=1;" parent="1" vertex="1">
          <mxGeometry x="60" y="680" width="60" height="40" as="geometry" />
        </mxCell>
        <mxCell id="aDyq0ExZdcWjo6-XUP3u-46" value="Name" style="rounded=0;whiteSpace=wrap;html=1;" parent="1" vertex="1">
          <mxGeometry x="120" y="680" width="70" height="40" as="geometry" />
        </mxCell>
        <mxCell id="aDyq0ExZdcWjo6-XUP3u-47" value="Librarian_Type" style="rounded=0;whiteSpace=wrap;html=1;" parent="1" vertex="1">
          <mxGeometry x="190" y="680" width="90" height="40" as="geometry" />
        </mxCell>
        <mxCell id="aDyq0ExZdcWjo6-XUP3u-48" value="Phone no." style="rounded=0;whiteSpace=wrap;html=1;" parent="1" vertex="1">
          <mxGeometry x="280" y="680" width="90" height="40" as="geometry" />
        </mxCell>
        <mxCell id="aDyq0ExZdcWjo6-XUP3u-49" value="&lt;b&gt;Librarians&lt;/b&gt;" style="text;html=1;strokeColor=none;fillColor=none;align=center;verticalAlign=middle;whiteSpace=wrap;rounded=0;" parent="1" vertex="1">
          <mxGeometry x="70" y="650" width="40" height="20" as="geometry" />
        </mxCell>
        <mxCell id="Iu9fj_M3wson_MXCtkIp-1" value="&lt;u&gt;Book ID&lt;/u&gt;" style="rounded=0;whiteSpace=wrap;html=1;" vertex="1" parent="1">
          <mxGeometry x="120" y="210" width="80" height="40" as="geometry" />
        </mxCell>
        <mxCell id="Iu9fj_M3wson_MXCtkIp-2" value="&lt;u&gt;Book ID&lt;/u&gt;" style="rounded=0;whiteSpace=wrap;html=1;" vertex="1" parent="1">
          <mxGeometry x="120" y="445" width="80" height="45" as="geometry" />
        </mxCell>
        <mxCell id="Iu9fj_M3wson_MXCtkIp-3" value="&lt;u&gt;SSN&lt;/u&gt;" style="rounded=0;whiteSpace=wrap;html=1;" vertex="1" parent="1">
          <mxGeometry x="115" y="560" width="80" height="40" as="geometry" />
        </mxCell>
        <mxCell id="Iu9fj_M3wson_MXCtkIp-5" value="" style="endArrow=none;html=1;entryX=0;entryY=0.5;entryDx=0;entryDy=0;" edge="1" parent="1" target="aDyq0ExZdcWjo6-XUP3u-27">
          <mxGeometry width="50" height="50" relative="1" as="geometry">
            <mxPoint x="30" y="580" as="sourcePoint" />
            <mxPoint x="55" y="560" as="targetPoint" />
          </mxGeometry>
        </mxCell>
        <mxCell id="Iu9fj_M3wson_MXCtkIp-15" value="" style="endArrow=classic;html=1;" edge="1" parent="1">
          <mxGeometry width="50" height="50" relative="1" as="geometry">
            <mxPoint x="90" y="150" as="sourcePoint" />
            <mxPoint x="89.5" y="120" as="targetPoint" />
          </mxGeometry>
        </mxCell>
        <mxCell id="Iu9fj_M3wson_MXCtkIp-16" value="" style="endArrow=classic;html=1;" edge="1" parent="1">
          <mxGeometry width="50" height="50" relative="1" as="geometry">
            <mxPoint x="70" y="400" as="sourcePoint" />
            <mxPoint x="70" y="360" as="targetPoint" />
          </mxGeometry>
        </mxCell>
        <mxCell id="Iu9fj_M3wson_MXCtkIp-18" value="" style="endArrow=none;html=1;" edge="1" parent="1">
          <mxGeometry width="50" height="50" relative="1" as="geometry">
            <mxPoint x="40" y="220" as="sourcePoint" />
            <mxPoint x="60" y="220" as="targetPoint" />
          </mxGeometry>
        </mxCell>
        <mxCell id="Iu9fj_M3wson_MXCtkIp-20" value="" style="endArrow=none;html=1;" edge="1" parent="1">
          <mxGeometry width="50" height="50" relative="1" as="geometry">
            <mxPoint x="30" y="380" as="sourcePoint" />
            <mxPoint x="60" y="380" as="targetPoint" />
          </mxGeometry>
        </mxCell>
        <mxCell id="Iu9fj_M3wson_MXCtkIp-21" value="" style="endArrow=classic;html=1;" edge="1" parent="1">
          <mxGeometry width="50" height="50" relative="1" as="geometry">
            <mxPoint x="60" y="380" as="sourcePoint" />
            <mxPoint x="60" y="360" as="targetPoint" />
          </mxGeometry>
        </mxCell>
        <mxCell id="Iu9fj_M3wson_MXCtkIp-22" value="" style="endArrow=none;html=1;entryX=0;entryY=0.5;entryDx=0;entryDy=0;" edge="1" parent="1" target="aDyq0ExZdcWjo6-XUP3u-40">
          <mxGeometry width="50" height="50" relative="1" as="geometry">
            <mxPoint x="50" y="468" as="sourcePoint" />
            <mxPoint x="60" y="440" as="targetPoint" />
          </mxGeometry>
        </mxCell>
        <mxCell id="Iu9fj_M3wson_MXCtkIp-25" value="" style="endArrow=classic;html=1;" edge="1" parent="1">
          <mxGeometry width="50" height="50" relative="1" as="geometry">
            <mxPoint x="40" y="339.5" as="sourcePoint" />
            <mxPoint x="60" y="339.5" as="targetPoint" />
          </mxGeometry>
        </mxCell>
        <mxCell id="Iu9fj_M3wson_MXCtkIp-28" value="" style="endArrow=none;html=1;" edge="1" parent="1">
          <mxGeometry width="50" height="50" relative="1" as="geometry">
            <mxPoint x="440" y="740" as="sourcePoint" />
            <mxPoint x="440" y="630" as="targetPoint" />
          </mxGeometry>
        </mxCell>
        <mxCell id="Iu9fj_M3wson_MXCtkIp-29" value="" style="endArrow=none;html=1;" edge="1" parent="1">
          <mxGeometry width="50" height="50" relative="1" as="geometry">
            <mxPoint x="80" y="740" as="sourcePoint" />
            <mxPoint x="440" y="740" as="targetPoint" />
          </mxGeometry>
        </mxCell>
        <mxCell id="Iu9fj_M3wson_MXCtkIp-30" value="" style="endArrow=classic;html=1;" edge="1" parent="1">
          <mxGeometry width="50" height="50" relative="1" as="geometry">
            <mxPoint x="80" y="740" as="sourcePoint" />
            <mxPoint x="79.5" y="720" as="targetPoint" />
          </mxGeometry>
        </mxCell>
        <mxCell id="Iu9fj_M3wson_MXCtkIp-31" value="" style="endArrow=none;html=1;" edge="1" parent="1">
          <mxGeometry width="50" height="50" relative="1" as="geometry">
            <mxPoint x="160" y="630" as="sourcePoint" />
            <mxPoint x="440" y="630" as="targetPoint" />
          </mxGeometry>
        </mxCell>
        <mxCell id="Iu9fj_M3wson_MXCtkIp-35" value="" style="endArrow=none;html=1;" edge="1" parent="1">
          <mxGeometry width="50" height="50" relative="1" as="geometry">
            <mxPoint x="160" y="630" as="sourcePoint" />
            <mxPoint x="160" y="601" as="targetPoint" />
          </mxGeometry>
        </mxCell>
        <mxCell id="Iu9fj_M3wson_MXCtkIp-37" value="" style="endArrow=classic;html=1;exitX=0.35;exitY=0.975;exitDx=0;exitDy=0;exitPerimeter=0;entryX=0.17;entryY=-0.05;entryDx=0;entryDy=0;entryPerimeter=0;" edge="1" parent="1" source="Iu9fj_M3wson_MXCtkIp-1" target="aDyq0ExZdcWjo6-XUP3u-18">
          <mxGeometry width="50" height="50" relative="1" as="geometry">
            <mxPoint x="140" y="310" as="sourcePoint" />
            <mxPoint x="190" y="260" as="targetPoint" />
          </mxGeometry>
        </mxCell>
        <mxCell id="Iu9fj_M3wson_MXCtkIp-38" value="" style="endArrow=classic;html=1;" edge="1" parent="1">
          <mxGeometry width="50" height="50" relative="1" as="geometry">
            <mxPoint x="163" y="445" as="sourcePoint" />
            <mxPoint x="163" y="360" as="targetPoint" />
          </mxGeometry>
        </mxCell>
        <mxCell id="Iu9fj_M3wson_MXCtkIp-39" value="" style="endArrow=none;html=1;" edge="1" parent="1">
          <mxGeometry width="50" height="50" relative="1" as="geometry">
            <mxPoint x="50" y="470" as="sourcePoint" />
            <mxPoint x="50" y="400" as="targetPoint" />
          </mxGeometry>
        </mxCell>
        <mxCell id="Iu9fj_M3wson_MXCtkIp-40" value="" style="endArrow=none;html=1;" edge="1" parent="1">
          <mxGeometry width="50" height="50" relative="1" as="geometry">
            <mxPoint x="50" y="400" as="sourcePoint" />
            <mxPoint x="70" y="400" as="targetPoint" />
          </mxGeometry>
        </mxCell>
        <mxCell id="Iu9fj_M3wson_MXCtkIp-41" value="" style="endArrow=none;html=1;" edge="1" parent="1">
          <mxGeometry width="50" height="50" relative="1" as="geometry">
            <mxPoint x="30" y="580" as="sourcePoint" />
            <mxPoint x="30" y="380" as="targetPoint" />
          </mxGeometry>
        </mxCell>
        <mxCell id="Iu9fj_M3wson_MXCtkIp-42" value="" style="endArrow=none;html=1;" edge="1" parent="1">
          <mxGeometry width="50" height="50" relative="1" as="geometry">
            <mxPoint x="40" y="340" as="sourcePoint" />
            <mxPoint x="40" y="220" as="targetPoint" />
          </mxGeometry>
        </mxCell>
        <mxCell id="Iu9fj_M3wson_MXCtkIp-43" value="" style="endArrow=none;html=1;" edge="1" parent="1">
          <mxGeometry width="50" height="50" relative="1" as="geometry">
            <mxPoint x="230" y="430" as="sourcePoint" />
            <mxPoint x="860" y="430" as="targetPoint" />
          </mxGeometry>
        </mxCell>
        <mxCell id="Iu9fj_M3wson_MXCtkIp-44" value="" style="endArrow=none;html=1;" edge="1" parent="1">
          <mxGeometry width="50" height="50" relative="1" as="geometry">
            <mxPoint x="860" y="430" as="sourcePoint" />
            <mxPoint x="860" y="150" as="targetPoint" />
          </mxGeometry>
        </mxCell>
        <mxCell id="Iu9fj_M3wson_MXCtkIp-45" value="" style="endArrow=none;html=1;" edge="1" parent="1">
          <mxGeometry width="50" height="50" relative="1" as="geometry">
            <mxPoint x="90" y="150" as="sourcePoint" />
            <mxPoint x="860" y="150" as="targetPoint" />
          </mxGeometry>
        </mxCell>
        <mxCell id="Iu9fj_M3wson_MXCtkIp-48" value="" style="endArrow=none;html=1;" edge="1" parent="1">
          <mxGeometry width="50" height="50" relative="1" as="geometry">
            <mxPoint x="70" y="170" as="sourcePoint" />
            <mxPoint x="240" y="170" as="targetPoint" />
          </mxGeometry>
        </mxCell>
        <mxCell id="Iu9fj_M3wson_MXCtkIp-49" value="" style="endArrow=classic;html=1;entryX=0.163;entryY=1.05;entryDx=0;entryDy=0;entryPerimeter=0;" edge="1" parent="1" target="aDyq0ExZdcWjo6-XUP3u-5">
          <mxGeometry width="50" height="50" relative="1" as="geometry">
            <mxPoint x="73" y="170" as="sourcePoint" />
            <mxPoint x="80" y="140" as="targetPoint" />
          </mxGeometry>
        </mxCell>
        <mxCell id="Iu9fj_M3wson_MXCtkIp-50" value="" style="endArrow=none;html=1;" edge="1" parent="1">
          <mxGeometry width="50" height="50" relative="1" as="geometry">
            <mxPoint x="240" y="210" as="sourcePoint" />
            <mxPoint x="240" y="170" as="targetPoint" />
          </mxGeometry>
        </mxCell>
        <mxCell id="Iu9fj_M3wson_MXCtkIp-52" value="" style="endArrow=none;html=1;exitX=0.4;exitY=-0.022;exitDx=0;exitDy=0;exitPerimeter=0;" edge="1" parent="1" source="aDyq0ExZdcWjo6-XUP3u-42">
          <mxGeometry width="50" height="50" relative="1" as="geometry">
            <mxPoint x="240" y="440" as="sourcePoint" />
            <mxPoint x="228" y="430" as="targetPoint" />
          </mxGeometry>
        </mxCell>
        <mxCell id="Iu9fj_M3wson_MXCtkIp-56" value="Member Type" style="rounded=0;whiteSpace=wrap;html=1;" vertex="1" parent="1">
          <mxGeometry x="870" y="80" width="90" height="40" as="geometry" />
        </mxCell>
      </root>
    </mxGraphModel>
  </diagram>
</mxfile>
